<svg xmlns="http://www.w3.org/2000/svg" version="1.1" xmlns:xlink="http://www.w3.org/1999/xlink" xmlns:svgjs="http://svgjs.dev/svgjs" width="500" height="1000" preserveAspectRatio="none" viewBox="0 0 500 1000"><g mask="url(&quot;#SvgjsMask1142&quot;)" fill="none"><rect width="500" height="1000" x="0" y="0" fill="rgba(0, 69, 158, 1)"></rect><path d="M86.4429955237467 811.5267431255842L151.81478689180307 738.9240135154178 79.21205728163666 673.5522221473614 13.840265913580296 746.1549517575278z" fill="rgba(0, 152, 255, 0.35)" class="triangle-float1"></path><path d="M106.48 521.35 a160.5 160.5 0 1 0 321 0 a160.5 160.5 0 1 0 -321 0z" fill="rgba(0, 152, 255, 0.35)" class="triangle-float2"></path><path d="M223.97 305.18 a126.21 126.21 0 1 0 252.42 0 a126.21 126.21 0 1 0 -252.42 0z" fill="rgba(0, 152, 255, 0.35)" class="triangle-float2"></path><path d="M525.1572306371697 357.75007627966033L391.9359908556552 317.0202558564903 351.2061704324851 450.24149563800484 484.4274102139997 490.9713160611749z" fill="rgba(0, 152, 255, 0.35)" class="triangle-float3"></path><path d="M-106.08 100.5 a131.47 131.47 0 1 0 262.94 0 a131.47 131.47 0 1 0 -262.94 0z" fill="rgba(0, 152, 255, 0.35)" class="triangle-float3"></path><path d="M428.851,942.328C466.748,938.828,490.342,906.203,510.522,873.936C532.641,838.568,561.702,798.228,541.953,761.484C521.69,723.783,471.643,721.126,428.851,721.98C388.024,722.795,345.889,731.824,323.307,765.847C298.364,803.429,292.926,853.182,316.077,891.893C338.731,929.772,384.902,946.387,428.851,942.328" fill="rgba(0, 152, 255, 0.35)" class="triangle-float1"></path><path d="M376.96289930477934 550.0239626909L320.6644377121327 600.7153251966656 371.3558002178983 657.0137867893122 427.654261810545 606.3224242835466z" fill="rgba(0, 152, 255, 0.35)" class="triangle-float1"></path><path d="M370.061,421.538C403.23,424.348,436.103,408.182,453.303,379.682C471.052,350.273,470.296,313.415,453.349,283.536C436.17,253.249,404.751,229.91,370.061,232.918C338.671,235.64,321.71,267.477,308.527,296.095C297.871,319.228,296.903,344.518,308.12,367.384C321.066,393.775,340.771,419.057,370.061,421.538" fill="rgba(0, 152, 255, 0.35)" class="triangle-float3"></path><path d="M-16.894,640.079C-4.676,639.429,6.731,633.521,12.695,622.838C18.518,612.408,17.456,599.715,11.381,589.43C5.416,579.33,-5.179,573.341,-16.894,572.74C-29.878,572.074,-43.492,575.417,-50.687,586.245C-58.616,598.177,-60.103,614.171,-52.487,626.305C-45.238,637.853,-30.51,640.803,-16.894,640.079" fill="rgba(0, 152, 255, 0.35)" class="triangle-float1"></path><path d="M421.455,819.555C447.1,818.513,472.477,807.995,484.659,785.404C496.34,763.744,488.186,738.778,476.774,716.975C464.159,692.874,448.655,665.064,421.455,664.654C393.881,664.238,376.94,691.369,363.17,715.262C349.426,739.11,335.251,766.903,348.679,790.93C362.309,815.319,393.539,820.69,421.455,819.555" fill="rgba(0, 152, 255, 0.35)" class="triangle-float3"></path><path d="M-5.45 9.09 a130.58 130.58 0 1 0 261.16 0 a130.58 130.58 0 1 0 -261.16 0z" fill="rgba(0, 152, 255, 0.35)" class="triangle-float1"></path><path d="M69.11 287.56 a84.66 84.66 0 1 0 169.32 0 a84.66 84.66 0 1 0 -169.32 0z" fill="rgba(0, 152, 255, 0.35)" class="triangle-float3"></path><path d="M506.587,758.271C538.783,758.38,561.83,729.423,575.601,700.321C587.336,675.522,584.422,647.212,570.259,623.715C556.594,601.044,533.023,587.18,506.587,585.826C477.314,584.326,445.562,591.402,430.516,616.557C415.172,642.21,424.243,673.518,438.381,699.855C453.555,728.123,474.504,758.162,506.587,758.271" fill="rgba(0, 152, 255, 0.35)" class="triangle-float1"></path><path d="M66.4232926491897 611.0256820870536L175.87300320465278 659.7558328250623 224.6031539426615 550.3061222695992 115.1534433871984 501.57597153159054z" fill="rgba(0, 152, 255, 0.35)" class="triangle-float1"></path><path d="M190.972,935.34C233.811,934.8,279.792,929.67,303.541,894.013C329.574,854.928,331.417,802.1,306.032,762.591C282.257,725.589,234.889,716.415,190.972,718.813C151.711,720.957,117.461,741.259,95.796,774.071C71.215,811.3,50.704,858.494,73.378,896.914C95.842,934.978,146.778,935.897,190.972,935.34" fill="rgba(0, 152, 255, 0.35)" class="triangle-float2"></path></g><defs><mask id="SvgjsMask1142"><rect width="500" height="1000" fill="#ffffff"></rect></mask><style>
                @keyframes float1 {
                    0%{transform: translate(0, 0)}
                    50%{transform: translate(-10px, 0)}
                    100%{transform: translate(0, 0)}
                }

                .triangle-float1 {
                    animation: float1 5s infinite;
                }

                @keyframes float2 {
                    0%{transform: translate(0, 0)}
                    50%{transform: translate(-5px, -5px)}
                    100%{transform: translate(0, 0)}
                }

                .triangle-float2 {
                    animation: float2 4s infinite;
                }

                @keyframes float3 {
                    0%{transform: translate(0, 0)}
                    50%{transform: translate(0, -10px)}
                    100%{transform: translate(0, 0)}
                }

                .triangle-float3 {
                    animation: float3 6s infinite;
                }
            </style></defs></svg>